<svg width="670" height="134" viewBox="0 0 670 134" fill="none" xmlns="http://www.w3.org/2000/svg">
<rect x="98.502" y="51.47" width="35.4967" height="35.4967" rx="4.25961" fill="#8764CE"/>
<rect x="87.8555" width="46.1457" height="46.1457" rx="5.53749" fill="#FCC573"/>
<rect x="105.604" y="95.8411" width="21.298" height="21.298" rx="2.55576" fill="#31549B"/>
<rect x="105.604" y="95.8411" width="21.298" height="21.298" rx="2.55576" fill="#31549B"/>
<rect x="44.3691" width="35.4967" height="35.4967" rx="4.25961" fill="#6487CE"/>
<rect y="45.2581" width="88.7418" height="88.7418" rx="10.649" fill="#FA9C0F"/>
<rect x="14.1973" y="7.09937" width="21.298" height="21.298" rx="2.55576" fill="#43277C"/>
<path d="M161.812 120.945H154.311L152.802 125H151.698L157.51 109.548H158.636L164.425 125H163.321L161.812 120.945ZM161.497 120.09L158.073 110.877L154.627 120.09H161.497ZM177.471 123.896L181.976 112.769H183.057L177.989 125H176.931L171.862 112.769H172.966L177.471 123.896ZM185.811 110.043C185.571 110.043 185.368 109.968 185.203 109.818C185.038 109.653 184.955 109.435 184.955 109.165C184.955 108.909 185.038 108.699 185.203 108.534C185.368 108.369 185.571 108.286 185.811 108.286C186.051 108.286 186.254 108.369 186.419 108.534C186.585 108.699 186.667 108.909 186.667 109.165C186.667 109.435 186.585 109.653 186.419 109.818C186.254 109.968 186.051 110.043 185.811 110.043ZM186.307 112.769V125H185.293V112.769H186.307ZM194.1 125.18C192.733 125.18 191.614 124.88 190.743 124.279C189.887 123.679 189.407 122.823 189.302 121.711H190.338C190.413 122.507 190.773 123.138 191.419 123.603C192.08 124.069 192.973 124.302 194.1 124.302C195.031 124.302 195.766 124.069 196.307 123.603C196.863 123.123 197.14 122.537 197.14 121.846C197.14 121.366 196.99 120.975 196.69 120.675C196.405 120.36 196.044 120.12 195.609 119.954C195.173 119.789 194.58 119.609 193.829 119.414C192.928 119.173 192.2 118.941 191.644 118.715C191.089 118.475 190.616 118.122 190.225 117.657C189.835 117.191 189.64 116.568 189.64 115.787C189.64 115.217 189.812 114.691 190.158 114.21C190.503 113.715 190.984 113.324 191.599 113.039C192.215 112.754 192.913 112.611 193.694 112.611C194.971 112.611 195.999 112.934 196.78 113.58C197.576 114.21 198.004 115.089 198.064 116.215H197.05C197.005 115.404 196.69 114.744 196.104 114.233C195.519 113.722 194.708 113.467 193.672 113.467C192.801 113.467 192.08 113.692 191.509 114.143C190.939 114.593 190.653 115.141 190.653 115.787C190.653 116.358 190.811 116.823 191.126 117.184C191.457 117.529 191.855 117.799 192.32 117.995C192.801 118.175 193.431 118.37 194.212 118.58C195.068 118.806 195.751 119.031 196.262 119.256C196.788 119.466 197.231 119.782 197.591 120.202C197.951 120.608 198.132 121.156 198.132 121.846C198.132 122.477 197.959 123.048 197.613 123.558C197.268 124.069 196.788 124.467 196.172 124.752C195.556 125.038 194.865 125.18 194.1 125.18ZM211.558 112.769V125H210.545V122.342C210.199 123.273 209.621 123.986 208.81 124.482C208.014 124.962 207.098 125.203 206.062 125.203C204.605 125.203 203.412 124.76 202.481 123.874C201.564 122.973 201.106 121.644 201.106 119.887V112.769H202.098V119.819C202.098 121.276 202.465 122.395 203.201 123.175C203.937 123.941 204.936 124.324 206.197 124.324C207.519 124.324 208.57 123.904 209.351 123.063C210.147 122.222 210.545 120.975 210.545 119.324V112.769H211.558ZM214.623 118.873C214.623 117.612 214.87 116.508 215.366 115.562C215.877 114.616 216.575 113.888 217.461 113.377C218.362 112.866 219.383 112.611 220.524 112.611C221.816 112.611 222.912 112.926 223.813 113.557C224.714 114.188 225.345 114.991 225.705 115.967V112.769H226.719V125H225.705V121.779C225.345 122.77 224.706 123.588 223.79 124.234C222.889 124.865 221.801 125.18 220.524 125.18C219.383 125.18 218.362 124.925 217.461 124.414C216.575 123.889 215.877 123.153 215.366 122.207C214.87 121.246 214.623 120.135 214.623 118.873ZM225.705 118.873C225.705 117.807 225.48 116.868 225.029 116.057C224.594 115.232 223.993 114.601 223.227 114.165C222.461 113.715 221.605 113.49 220.659 113.49C219.668 113.49 218.797 113.707 218.046 114.143C217.296 114.563 216.71 115.179 216.29 115.99C215.869 116.801 215.659 117.762 215.659 118.873C215.659 119.984 215.869 120.945 216.29 121.756C216.71 122.567 217.296 123.19 218.046 123.626C218.812 124.061 219.683 124.279 220.659 124.279C221.605 124.279 222.461 124.061 223.227 123.626C224.008 123.175 224.616 122.545 225.052 121.734C225.487 120.908 225.705 119.954 225.705 118.873ZM231.423 108.331V125H230.409V108.331H231.423ZM235.815 122.635L233.697 128.401H232.931L234.643 122.635H235.815ZM259.169 112.521C260.565 112.521 261.707 112.972 262.593 113.873C263.479 114.759 263.922 116.08 263.922 117.837V125H262.931V117.905C262.931 116.448 262.578 115.337 261.872 114.571C261.181 113.79 260.228 113.4 259.011 113.4C257.75 113.4 256.736 113.835 255.97 114.706C255.204 115.577 254.822 116.838 254.822 118.49V125H253.83V117.905C253.83 116.448 253.478 115.337 252.772 114.571C252.081 113.79 251.127 113.4 249.911 113.4C248.65 113.4 247.636 113.835 246.87 114.706C246.104 115.577 245.721 116.838 245.721 118.49V125H244.708V112.769H245.721V115.427C246.067 114.466 246.622 113.745 247.388 113.264C248.169 112.769 249.063 112.521 250.069 112.521C251.18 112.521 252.134 112.814 252.929 113.4C253.74 113.97 254.296 114.819 254.596 115.945C254.882 114.819 255.437 113.97 256.263 113.4C257.089 112.814 258.058 112.521 259.169 112.521ZM278.534 118.062C278.534 118.603 278.519 119.008 278.489 119.279H267.924C267.954 120.375 268.195 121.298 268.645 122.049C269.096 122.8 269.689 123.363 270.425 123.739C271.16 124.114 271.964 124.302 272.835 124.302C274.036 124.302 275.042 124.009 275.853 123.423C276.664 122.823 277.175 122.012 277.385 120.991H278.444C278.203 122.237 277.588 123.251 276.597 124.031C275.605 124.797 274.352 125.18 272.835 125.18C271.694 125.18 270.672 124.925 269.771 124.414C268.87 123.904 268.165 123.175 267.654 122.229C267.143 121.268 266.888 120.15 266.888 118.873C266.888 117.597 267.136 116.485 267.632 115.539C268.142 114.593 268.848 113.873 269.749 113.377C270.65 112.866 271.679 112.611 272.835 112.611C274.006 112.611 275.02 112.866 275.876 113.377C276.747 113.873 277.407 114.541 277.858 115.382C278.308 116.208 278.534 117.101 278.534 118.062ZM277.52 118.445C277.565 117.364 277.37 116.448 276.934 115.697C276.514 114.946 275.936 114.391 275.2 114.03C274.464 113.655 273.668 113.467 272.812 113.467C271.956 113.467 271.16 113.655 270.425 114.03C269.704 114.391 269.111 114.946 268.645 115.697C268.195 116.448 267.954 117.364 267.924 118.445H277.52ZM283.106 113.647V121.734C283.106 122.635 283.272 123.258 283.602 123.603C283.932 123.934 284.518 124.099 285.359 124.099H286.733V125H285.201C284.135 125 283.347 124.752 282.836 124.257C282.34 123.746 282.093 122.905 282.093 121.734V113.647H280.246V112.769H282.093V109.66H283.106V112.769H286.733V113.647H283.106ZM288.775 118.873C288.775 117.612 289.023 116.508 289.519 115.562C290.029 114.616 290.728 113.888 291.614 113.377C292.515 112.866 293.536 112.611 294.677 112.611C295.969 112.611 297.065 112.926 297.966 113.557C298.867 114.188 299.497 114.991 299.858 115.967V112.769H300.872V125H299.858V121.779C299.497 122.77 298.859 123.588 297.943 124.234C297.042 124.865 295.954 125.18 294.677 125.18C293.536 125.18 292.515 124.925 291.614 124.414C290.728 123.889 290.029 123.153 289.519 122.207C289.023 121.246 288.775 120.135 288.775 118.873ZM299.858 118.873C299.858 117.807 299.633 116.868 299.182 116.057C298.747 115.232 298.146 114.601 297.38 114.165C296.614 113.715 295.758 113.49 294.812 113.49C293.821 113.49 292.95 113.707 292.199 114.143C291.448 114.563 290.863 115.179 290.442 115.99C290.022 116.801 289.812 117.762 289.812 118.873C289.812 119.984 290.022 120.945 290.442 121.756C290.863 122.567 291.448 123.19 292.199 123.626C292.965 124.061 293.836 124.279 294.812 124.279C295.758 124.279 296.614 124.061 297.38 123.626C298.161 123.175 298.769 122.545 299.205 121.734C299.64 120.908 299.858 119.954 299.858 118.873ZM311.14 116.103V116.981H302.67V116.103H311.14ZM314.798 118.873C314.798 117.612 315.046 116.508 315.542 115.562C316.052 114.616 316.75 113.888 317.636 113.377C318.537 112.866 319.559 112.611 320.7 112.611C321.946 112.611 323.027 112.926 323.944 113.557C324.86 114.173 325.505 114.976 325.881 115.967V108.331H326.894V125H325.881V121.756C325.52 122.762 324.89 123.588 323.989 124.234C323.088 124.865 321.991 125.18 320.7 125.18C319.559 125.18 318.537 124.925 317.636 124.414C316.75 123.889 316.052 123.153 315.542 122.207C315.046 121.246 314.798 120.135 314.798 118.873ZM325.881 118.873C325.881 117.807 325.655 116.868 325.205 116.057C324.769 115.232 324.169 114.601 323.403 114.165C322.637 113.715 321.781 113.49 320.835 113.49C319.844 113.49 318.973 113.707 318.222 114.143C317.471 114.563 316.886 115.179 316.465 115.99C316.045 116.801 315.834 117.762 315.834 118.873C315.834 119.984 316.045 120.945 316.465 121.756C316.886 122.567 317.471 123.19 318.222 123.626C318.988 124.061 319.859 124.279 320.835 124.279C321.781 124.279 322.637 124.061 323.403 123.626C324.184 123.175 324.792 122.545 325.227 121.734C325.663 120.908 325.881 119.954 325.881 118.873ZM331.599 115.292C331.899 114.391 332.432 113.707 333.198 113.242C333.964 112.761 334.94 112.521 336.126 112.521V113.58H335.788C334.587 113.58 333.588 113.925 332.793 114.616C331.997 115.292 331.599 116.403 331.599 117.95V125H330.585V112.769H331.599V115.292ZM338.978 110.043C338.738 110.043 338.535 109.968 338.37 109.818C338.205 109.653 338.122 109.435 338.122 109.165C338.122 108.909 338.205 108.699 338.37 108.534C338.535 108.369 338.738 108.286 338.978 108.286C339.218 108.286 339.421 108.369 339.586 108.534C339.752 108.699 339.834 108.909 339.834 109.165C339.834 109.435 339.752 109.653 339.586 109.818C339.421 109.968 339.218 110.043 338.978 110.043ZM339.474 112.769V125H338.46V112.769H339.474ZM347.334 123.896L351.839 112.769H352.92L347.852 125H346.794L341.725 112.769H342.829L347.334 123.896ZM366.171 118.062C366.171 118.603 366.156 119.008 366.126 119.279H355.562C355.592 120.375 355.832 121.298 356.282 122.049C356.733 122.8 357.326 123.363 358.062 123.739C358.798 124.114 359.601 124.302 360.472 124.302C361.673 124.302 362.679 124.009 363.49 123.423C364.301 122.823 364.812 122.012 365.022 120.991H366.081C365.841 122.237 365.225 123.251 364.234 124.031C363.243 124.797 361.989 125.18 360.472 125.18C359.331 125.18 358.31 124.925 357.409 124.414C356.508 123.904 355.802 123.175 355.291 122.229C354.781 121.268 354.525 120.15 354.525 118.873C354.525 117.597 354.773 116.485 355.269 115.539C355.779 114.593 356.485 113.873 357.386 113.377C358.287 112.866 359.316 112.611 360.472 112.611C361.643 112.611 362.657 112.866 363.513 113.377C364.384 113.873 365.045 114.541 365.495 115.382C365.946 116.208 366.171 117.101 366.171 118.062ZM365.157 118.445C365.202 117.364 365.007 116.448 364.572 115.697C364.151 114.946 363.573 114.391 362.837 114.03C362.101 113.655 361.305 113.467 360.449 113.467C359.594 113.467 358.798 113.655 358.062 114.03C357.341 114.391 356.748 114.946 356.282 115.697C355.832 116.448 355.592 117.364 355.562 118.445H365.157ZM374.753 112.521C376.21 112.521 377.396 112.972 378.312 113.873C379.228 114.759 379.686 116.08 379.686 117.837V125H378.695V117.905C378.695 116.448 378.327 115.337 377.591 114.571C376.855 113.79 375.857 113.4 374.595 113.4C373.274 113.4 372.215 113.82 371.419 114.661C370.638 115.502 370.248 116.748 370.248 118.4V125H369.234V112.769H370.248V115.359C370.593 114.443 371.164 113.745 371.96 113.264C372.771 112.769 373.702 112.521 374.753 112.521ZM383.944 122.635L381.827 128.401H381.061L382.773 122.635H383.944ZM403.176 112.769V125H402.163V122.342C401.817 123.273 401.239 123.986 400.428 124.482C399.633 124.962 398.717 125.203 397.68 125.203C396.224 125.203 395.03 124.76 394.099 123.874C393.183 122.973 392.725 121.644 392.725 119.887V112.769H393.716V119.819C393.716 121.276 394.084 122.395 394.82 123.175C395.555 123.941 396.554 124.324 397.815 124.324C399.137 124.324 400.188 123.904 400.969 123.063C401.765 122.222 402.163 120.975 402.163 119.324V112.769H403.176ZM412.39 112.521C413.847 112.521 415.033 112.972 415.949 113.873C416.865 114.759 417.323 116.08 417.323 117.837V125H416.332V117.905C416.332 116.448 415.964 115.337 415.229 114.571C414.493 113.79 413.494 113.4 412.233 113.4C410.911 113.4 409.853 113.82 409.057 114.661C408.276 115.502 407.885 116.748 407.885 118.4V125H406.872V112.769H407.885V115.359C408.231 114.443 408.801 113.745 409.597 113.264C410.408 112.769 411.339 112.521 412.39 112.521ZM421.424 110.043C421.184 110.043 420.981 109.968 420.816 109.818C420.651 109.653 420.568 109.435 420.568 109.165C420.568 108.909 420.651 108.699 420.816 108.534C420.981 108.369 421.184 108.286 421.424 108.286C421.664 108.286 421.867 108.369 422.032 108.534C422.197 108.699 422.28 108.909 422.28 109.165C422.28 109.435 422.197 109.653 422.032 109.818C421.867 109.968 421.664 110.043 421.424 110.043ZM421.92 112.769V125H420.906V112.769H421.92ZM429.78 123.896L434.285 112.769H435.366L430.298 125H429.239L424.171 112.769H425.275L429.78 123.896ZM448.617 118.062C448.617 118.603 448.602 119.008 448.572 119.279H438.007C438.037 120.375 438.278 121.298 438.728 122.049C439.179 122.8 439.772 123.363 440.508 123.739C441.243 124.114 442.047 124.302 442.918 124.302C444.119 124.302 445.125 124.009 445.936 123.423C446.747 122.823 447.258 122.012 447.468 120.991H448.527C448.286 122.237 447.671 123.251 446.68 124.031C445.688 124.797 444.435 125.18 442.918 125.18C441.777 125.18 440.755 124.925 439.854 124.414C438.953 123.904 438.248 123.175 437.737 122.229C437.226 121.268 436.971 120.15 436.971 118.873C436.971 117.597 437.219 116.485 437.715 115.539C438.225 114.593 438.931 113.873 439.832 113.377C440.733 112.866 441.762 112.611 442.918 112.611C444.089 112.611 445.103 112.866 445.959 113.377C446.83 113.873 447.49 114.541 447.941 115.382C448.391 116.208 448.617 117.101 448.617 118.062ZM447.603 118.445C447.648 117.364 447.453 116.448 447.017 115.697C446.597 114.946 446.019 114.391 445.283 114.03C444.547 113.655 443.751 113.467 442.895 113.467C442.039 113.467 441.243 113.655 440.508 114.03C439.787 114.391 439.194 114.946 438.728 115.697C438.278 116.448 438.037 117.364 438.007 118.445H447.603ZM452.694 115.292C452.994 114.391 453.527 113.707 454.293 113.242C455.059 112.761 456.035 112.521 457.221 112.521V113.58H456.883C455.682 113.58 454.683 113.925 453.888 114.616C453.092 115.292 452.694 116.403 452.694 117.95V125H451.68V112.769H452.694V115.292ZM463.632 125.18C462.266 125.18 461.147 124.88 460.276 124.279C459.42 123.679 458.939 122.823 458.834 121.711H459.871C459.946 122.507 460.306 123.138 460.952 123.603C461.612 124.069 462.506 124.302 463.632 124.302C464.563 124.302 465.299 124.069 465.84 123.603C466.395 123.123 466.673 122.537 466.673 121.846C466.673 121.366 466.523 120.975 466.223 120.675C465.937 120.36 465.577 120.12 465.141 119.954C464.706 119.789 464.113 119.609 463.362 119.414C462.461 119.173 461.733 118.941 461.177 118.715C460.621 118.475 460.148 118.122 459.758 117.657C459.367 117.191 459.172 116.568 459.172 115.787C459.172 115.217 459.345 114.691 459.69 114.21C460.036 113.715 460.516 113.324 461.132 113.039C461.748 112.754 462.446 112.611 463.227 112.611C464.503 112.611 465.532 112.934 466.313 113.58C467.109 114.21 467.537 115.089 467.597 116.215H466.583C466.538 115.404 466.223 114.744 465.637 114.233C465.051 113.722 464.24 113.467 463.204 113.467C462.333 113.467 461.612 113.692 461.042 114.143C460.471 114.593 460.186 115.141 460.186 115.787C460.186 116.358 460.344 116.823 460.659 117.184C460.989 117.529 461.387 117.799 461.853 117.995C462.333 118.175 462.964 118.37 463.745 118.58C464.601 118.806 465.284 119.031 465.795 119.256C466.32 119.466 466.763 119.782 467.124 120.202C467.484 120.608 467.664 121.156 467.664 121.846C467.664 122.477 467.492 123.048 467.146 123.558C466.801 124.069 466.32 124.467 465.705 124.752C465.089 125.038 464.398 125.18 463.632 125.18ZM470.121 118.873C470.121 117.612 470.369 116.508 470.864 115.562C471.375 114.616 472.073 113.888 472.959 113.377C473.86 112.866 474.881 112.611 476.023 112.611C477.314 112.611 478.41 112.926 479.311 113.557C480.212 114.188 480.843 114.991 481.203 115.967V112.769H482.217V125H481.203V121.779C480.843 122.77 480.205 123.588 479.289 124.234C478.388 124.865 477.299 125.18 476.023 125.18C474.881 125.18 473.86 124.925 472.959 124.414C472.073 123.889 471.375 123.153 470.864 122.207C470.369 121.246 470.121 120.135 470.121 118.873ZM481.203 118.873C481.203 117.807 480.978 116.868 480.528 116.057C480.092 115.232 479.492 114.601 478.726 114.165C477.96 113.715 477.104 113.49 476.158 113.49C475.167 113.49 474.296 113.707 473.545 114.143C472.794 114.563 472.208 115.179 471.788 115.99C471.367 116.801 471.157 117.762 471.157 118.873C471.157 119.984 471.367 120.945 471.788 121.756C472.208 122.567 472.794 123.19 473.545 123.626C474.311 124.061 475.182 124.279 476.158 124.279C477.104 124.279 477.96 124.061 478.726 123.626C479.507 123.175 480.115 122.545 480.55 121.734C480.986 120.908 481.203 119.954 481.203 118.873ZM486.922 108.331V125H485.908V108.331H486.922ZM501.567 125.158C500.546 125.158 499.653 124.977 498.887 124.617C498.121 124.257 497.52 123.769 497.085 123.153C496.664 122.537 496.424 121.854 496.364 121.103H497.423C497.543 121.929 497.926 122.665 498.571 123.311C499.232 123.956 500.231 124.279 501.567 124.279C502.348 124.279 503.024 124.137 503.594 123.851C504.18 123.566 504.631 123.175 504.946 122.68C505.261 122.184 505.419 121.636 505.419 121.036C505.419 120.27 505.231 119.662 504.856 119.211C504.495 118.761 504.037 118.423 503.482 118.197C502.941 117.972 502.205 117.732 501.274 117.477C500.253 117.206 499.427 116.936 498.797 116.666C498.181 116.395 497.655 115.982 497.22 115.427C496.799 114.856 496.589 114.083 496.589 113.107C496.589 112.356 496.784 111.673 497.175 111.057C497.58 110.426 498.151 109.931 498.887 109.57C499.623 109.21 500.471 109.03 501.432 109.03C502.829 109.03 503.955 109.375 504.811 110.066C505.667 110.757 506.177 111.605 506.343 112.611H505.261C505.171 112.206 504.968 111.793 504.653 111.372C504.353 110.952 503.917 110.606 503.347 110.336C502.791 110.051 502.123 109.908 501.342 109.908C500.291 109.908 499.405 110.201 498.684 110.787C497.963 111.357 497.603 112.123 497.603 113.084C497.603 113.85 497.79 114.466 498.166 114.931C498.541 115.382 498.999 115.727 499.54 115.967C500.096 116.193 500.839 116.425 501.77 116.666C502.806 116.951 503.624 117.229 504.225 117.499C504.841 117.754 505.359 118.167 505.779 118.738C506.215 119.294 506.433 120.052 506.433 121.013C506.433 121.719 506.245 122.387 505.869 123.018C505.494 123.648 504.938 124.167 504.203 124.572C503.482 124.962 502.603 125.158 501.567 125.158ZM523.005 128.221L518.995 124.797C518.199 125.053 517.373 125.18 516.517 125.18C515.061 125.18 513.747 124.842 512.575 124.167C511.404 123.476 510.488 122.515 509.827 121.283C509.167 120.052 508.836 118.663 508.836 117.116C508.836 115.554 509.167 114.165 509.827 112.949C510.488 111.718 511.404 110.764 512.575 110.088C513.747 109.398 515.061 109.052 516.517 109.052C517.974 109.052 519.288 109.398 520.459 110.088C521.631 110.764 522.547 111.718 523.207 112.949C523.868 114.165 524.198 115.554 524.198 117.116C524.198 118.783 523.816 120.255 523.05 121.531C522.299 122.808 521.278 123.769 519.986 124.414L524.446 128.221H523.005ZM509.872 117.116C509.872 118.558 510.165 119.819 510.751 120.9C511.337 121.982 512.132 122.815 513.139 123.401C514.145 123.986 515.271 124.279 516.517 124.279C517.764 124.279 518.89 123.986 519.896 123.401C520.902 122.815 521.691 121.982 522.261 120.9C522.847 119.819 523.14 118.558 523.14 117.116C523.14 115.66 522.847 114.391 522.261 113.309C521.691 112.228 520.902 111.395 519.896 110.809C518.89 110.223 517.764 109.931 516.517 109.931C515.271 109.931 514.145 110.223 513.139 110.809C512.132 111.395 511.337 112.228 510.751 113.309C510.165 114.391 509.872 115.66 509.872 117.116ZM528.298 124.144H534.178V125H527.285V109.187H528.298V124.144ZM542.206 118.873C542.206 117.612 542.454 116.508 542.95 115.562C543.46 114.616 544.158 113.888 545.044 113.377C545.945 112.866 546.966 112.611 548.108 112.611C549.399 112.611 550.495 112.926 551.396 113.557C552.297 114.188 552.928 114.991 553.289 115.967V112.769H554.302V125H553.289V121.779C552.928 122.77 552.29 123.588 551.374 124.234C550.473 124.865 549.384 125.18 548.108 125.18C546.966 125.18 545.945 124.925 545.044 124.414C544.158 123.889 543.46 123.153 542.95 122.207C542.454 121.246 542.206 120.135 542.206 118.873ZM553.289 118.873C553.289 117.807 553.063 116.868 552.613 116.057C552.177 115.232 551.577 114.601 550.811 114.165C550.045 113.715 549.189 113.49 548.243 113.49C547.252 113.49 546.381 113.707 545.63 114.143C544.879 114.563 544.294 115.179 543.873 115.99C543.453 116.801 543.242 117.762 543.242 118.873C543.242 119.984 543.453 120.945 543.873 121.756C544.294 122.567 544.879 123.19 545.63 123.626C546.396 124.061 547.267 124.279 548.243 124.279C549.189 124.279 550.045 124.061 550.811 123.626C551.592 123.175 552.2 122.545 552.635 121.734C553.071 120.908 553.289 119.954 553.289 118.873ZM559.007 115.99C559.352 114.999 559.975 114.188 560.876 113.557C561.792 112.926 562.896 112.611 564.187 112.611C565.329 112.611 566.342 112.866 567.228 113.377C568.129 113.888 568.828 114.616 569.323 115.562C569.834 116.508 570.089 117.612 570.089 118.873C570.089 120.135 569.834 121.246 569.323 122.207C568.828 123.153 568.129 123.889 567.228 124.414C566.342 124.925 565.329 125.18 564.187 125.18C562.911 125.18 561.815 124.865 560.899 124.234C559.998 123.588 559.367 122.778 559.007 121.801V130.766H557.993V112.769H559.007V115.99ZM569.053 118.873C569.053 117.762 568.843 116.801 568.422 115.99C568.002 115.179 567.409 114.563 566.643 114.143C565.892 113.707 565.021 113.49 564.03 113.49C563.084 113.49 562.228 113.715 561.462 114.165C560.696 114.601 560.095 115.232 559.66 116.057C559.224 116.868 559.007 117.807 559.007 118.873C559.007 119.954 559.224 120.908 559.66 121.734C560.095 122.545 560.696 123.175 561.462 123.626C562.228 124.061 563.084 124.279 564.03 124.279C565.021 124.279 565.892 124.061 566.643 123.626C567.409 123.19 568.002 122.567 568.422 121.756C568.843 120.945 569.053 119.984 569.053 118.873ZM574.163 115.99C574.508 114.999 575.131 114.188 576.032 113.557C576.948 112.926 578.052 112.611 579.344 112.611C580.485 112.611 581.498 112.866 582.384 113.377C583.285 113.888 583.984 114.616 584.479 115.562C584.99 116.508 585.245 117.612 585.245 118.873C585.245 120.135 584.99 121.246 584.479 122.207C583.984 123.153 583.285 123.889 582.384 124.414C581.498 124.925 580.485 125.18 579.344 125.18C578.067 125.18 576.971 124.865 576.055 124.234C575.154 123.588 574.523 122.778 574.163 121.801V130.766H573.149V112.769H574.163V115.99ZM584.209 118.873C584.209 117.762 583.999 116.801 583.578 115.99C583.158 115.179 582.565 114.563 581.799 114.143C581.048 113.707 580.177 113.49 579.186 113.49C578.24 113.49 577.384 113.715 576.618 114.165C575.852 114.601 575.251 115.232 574.816 116.057C574.381 116.868 574.163 117.807 574.163 118.873C574.163 119.954 574.381 120.908 574.816 121.734C575.251 122.545 575.852 123.175 576.618 123.626C577.384 124.061 578.24 124.279 579.186 124.279C580.177 124.279 581.048 124.061 581.799 123.626C582.565 123.19 583.158 122.567 583.578 121.756C583.999 120.945 584.209 119.984 584.209 118.873ZM595.676 115.99C596.052 114.999 596.69 114.188 597.591 113.557C598.492 112.926 599.581 112.611 600.857 112.611C601.998 112.611 603.012 112.866 603.898 113.377C604.799 113.888 605.497 114.616 605.993 115.562C606.503 116.508 606.759 117.612 606.759 118.873C606.759 120.135 606.503 121.246 605.993 122.207C605.497 123.153 604.799 123.889 603.898 124.414C603.012 124.925 601.998 125.18 600.857 125.18C599.581 125.18 598.484 124.865 597.568 124.234C596.667 123.603 596.037 122.793 595.676 121.801V125H594.662V108.331H595.676V115.99ZM605.722 118.873C605.722 117.762 605.512 116.801 605.092 115.99C604.671 115.179 604.078 114.563 603.312 114.143C602.561 113.707 601.69 113.49 600.699 113.49C599.753 113.49 598.897 113.715 598.131 114.165C597.366 114.601 596.765 115.232 596.329 116.057C595.894 116.868 595.676 117.807 595.676 118.873C595.676 119.954 595.894 120.908 596.329 121.734C596.765 122.545 597.366 123.175 598.131 123.626C598.897 124.061 599.753 124.279 600.699 124.279C601.69 124.279 602.561 124.061 603.312 123.626C604.078 123.19 604.671 122.567 605.092 121.756C605.512 120.945 605.722 119.984 605.722 118.873ZM620.158 112.769V125H619.144V122.342C618.799 123.273 618.221 123.986 617.41 124.482C616.614 124.962 615.698 125.203 614.662 125.203C613.205 125.203 612.011 124.76 611.08 123.874C610.164 122.973 609.706 121.644 609.706 119.887V112.769H610.697V119.819C610.697 121.276 611.065 122.395 611.801 123.175C612.537 123.941 613.535 124.324 614.797 124.324C616.118 124.324 617.169 123.904 617.95 123.063C618.746 122.222 619.144 120.975 619.144 119.324V112.769H620.158ZM624.371 110.043C624.131 110.043 623.928 109.968 623.763 109.818C623.598 109.653 623.515 109.435 623.515 109.165C623.515 108.909 623.598 108.699 623.763 108.534C623.928 108.369 624.131 108.286 624.371 108.286C624.611 108.286 624.814 108.369 624.979 108.534C625.144 108.699 625.227 108.909 625.227 109.165C625.227 109.435 625.144 109.653 624.979 109.818C624.814 109.968 624.611 110.043 624.371 110.043ZM624.867 112.769V125H623.853V112.769H624.867ZM629.596 108.331V125H628.582V108.331H629.596ZM632.681 118.873C632.681 117.612 632.929 116.508 633.424 115.562C633.935 114.616 634.633 113.888 635.519 113.377C636.42 112.866 637.441 112.611 638.583 112.611C639.829 112.611 640.91 112.926 641.826 113.557C642.742 114.173 643.388 114.976 643.763 115.967V108.331H644.777V125H643.763V121.756C643.403 122.762 642.772 123.588 641.871 124.234C640.97 124.865 639.874 125.18 638.583 125.18C637.441 125.18 636.42 124.925 635.519 124.414C634.633 123.889 633.935 123.153 633.424 122.207C632.929 121.246 632.681 120.135 632.681 118.873ZM643.763 118.873C643.763 117.807 643.538 116.868 643.088 116.057C642.652 115.232 642.052 114.601 641.286 114.165C640.52 113.715 639.664 113.49 638.718 113.49C637.727 113.49 636.856 113.707 636.105 114.143C635.354 114.563 634.768 115.179 634.348 115.99C633.927 116.801 633.717 117.762 633.717 118.873C633.717 119.984 633.927 120.945 634.348 121.756C634.768 122.567 635.354 123.19 636.105 123.626C636.871 124.061 637.742 124.279 638.718 124.279C639.664 124.279 640.52 124.061 641.286 123.626C642.067 123.175 642.675 122.545 643.11 121.734C643.546 120.908 643.763 119.954 643.763 118.873ZM659.483 118.062C659.483 118.603 659.468 119.008 659.438 119.279H648.873C648.903 120.375 649.144 121.298 649.594 122.049C650.045 122.8 650.638 123.363 651.374 123.739C652.109 124.114 652.913 124.302 653.784 124.302C654.985 124.302 655.991 124.009 656.802 123.423C657.613 122.823 658.124 122.012 658.334 120.991H659.393C659.152 122.237 658.537 123.251 657.546 124.031C656.554 124.797 655.301 125.18 653.784 125.18C652.643 125.18 651.621 124.925 650.72 124.414C649.819 123.904 649.114 123.175 648.603 122.229C648.092 121.268 647.837 120.15 647.837 118.873C647.837 117.597 648.085 116.485 648.58 115.539C649.091 114.593 649.797 113.873 650.698 113.377C651.599 112.866 652.628 112.611 653.784 112.611C654.955 112.611 655.969 112.866 656.825 113.377C657.696 113.873 658.356 114.541 658.807 115.382C659.257 116.208 659.483 117.101 659.483 118.062ZM658.469 118.445C658.514 117.364 658.319 116.448 657.883 115.697C657.463 114.946 656.885 114.391 656.149 114.03C655.413 113.655 654.617 113.467 653.761 113.467C652.905 113.467 652.109 113.655 651.374 114.03C650.653 114.391 650.06 114.946 649.594 115.697C649.144 116.448 648.903 117.364 648.873 118.445H658.469ZM663.56 115.292C663.86 114.391 664.393 113.707 665.159 113.242C665.925 112.761 666.901 112.521 668.087 112.521V113.58H667.749C666.548 113.58 665.549 113.925 664.754 114.616C663.958 115.292 663.56 116.403 663.56 117.95V125H662.546V112.769H663.56V115.292Z" fill="#1C1C21"/>
<path d="M234.093 91.1093H209.152L175.941 40.9737V91.1093H151V1.39973H175.941L209.152 52.1715V1.39973H234.093V91.1093ZM321.34 19.7234V91.1093H296.272V80.9295C294.151 84.1531 291.224 86.7829 287.492 88.8188C283.759 90.77 279.475 91.7455 274.64 91.7455C266.326 91.7455 259.752 89.0308 254.917 83.6017C250.166 78.0876 247.791 70.6224 247.791 61.2061V19.7234H272.604V58.0249C272.604 62.0968 273.664 65.3205 275.785 67.6957C277.991 69.9862 280.875 71.1314 284.438 71.1314C288.086 71.1314 290.97 69.9862 293.091 67.6957C295.212 65.3205 296.272 62.0968 296.272 58.0249V19.7234H321.34ZM392.795 45.0456C398.055 46.2333 402.212 48.8631 405.266 52.935C408.404 56.9221 409.974 61.503 409.974 66.6777C409.974 74.3126 407.344 80.2932 402.084 84.6196C396.824 88.9461 389.444 91.1093 379.943 91.1093H335.534V1.39973H378.544C387.705 1.39973 394.874 3.43569 400.048 7.50761C405.308 11.5795 407.938 17.3057 407.938 24.686C407.938 29.9456 406.538 34.3569 403.739 37.9198C401.024 41.3979 397.376 43.7732 392.795 45.0456ZM360.474 37.029H373.072C379.35 37.029 382.488 34.4416 382.488 29.2669C382.488 23.9225 379.35 21.2503 373.072 21.2503H360.474V37.029ZM374.981 71.0042C381.259 71.0042 384.397 68.3744 384.397 63.1148C384.397 60.4001 383.549 58.3219 381.852 56.8797C380.241 55.4375 377.907 54.7165 374.853 54.7165H360.474V71.0042H374.981ZM445.845 72.0221H473.712V91.1093H420.905V1.39973H445.845V72.0221ZM526.419 92C518.021 92 510.302 90.0488 503.26 86.1466C496.219 82.1595 490.62 76.6878 486.463 69.7317C482.391 62.6906 480.355 54.7589 480.355 45.9364C480.355 37.1138 482.391 29.2245 486.463 22.2683C490.62 15.2273 496.219 9.75565 503.26 5.85339C510.302 1.95112 518.021 0 526.419 0C534.902 0 542.622 1.95112 549.578 5.85339C556.62 9.75565 562.176 15.2273 566.248 22.2683C570.32 29.2245 572.355 37.1138 572.355 45.9364C572.355 54.7589 570.32 62.6906 566.248 69.7317C562.176 76.6878 556.62 82.1595 549.578 86.1466C542.537 90.0488 534.817 92 526.419 92ZM526.419 68.8409C532.781 68.8409 537.787 66.7625 541.434 62.6058C545.167 58.4491 547.033 52.8925 547.033 45.9364C547.033 38.8105 545.167 33.2116 541.434 29.1397C537.787 24.983 532.781 22.9046 526.419 22.9046C519.972 22.9046 514.924 24.983 511.277 29.1397C507.629 33.2116 505.805 38.8105 505.805 45.9364C505.805 52.9775 507.629 58.5764 511.277 62.7331C514.924 66.805 519.972 68.8409 526.419 68.8409ZM639.683 91.1093L622.25 65.787L607.362 91.1093H578.986L608.126 45.1729L577.968 1.39973H607.362L624.286 26.0858L638.793 1.39973H667.169L638.411 46.5726L669.077 91.1093H639.683Z" fill="#1C1C21"/>
</svg>
