<svg width="631" height="156" viewBox="0 0 631 156" fill="none" xmlns="http://www.w3.org/2000/svg">
<path d="M13.1707 138.061H4.03354L2.19512 143H0.85061L7.92988 124.177H9.30183L16.3537 143H15.0091L13.1707 138.061ZM12.7866 137.018L8.61585 125.796L4.41768 137.018H12.7866ZM32.2458 141.655L37.7336 128.101H39.0507L32.8769 143H31.5872L25.4135 128.101H26.758L32.2458 141.655ZM42.4051 124.78C42.1124 124.78 41.8654 124.689 41.6642 124.506C41.463 124.305 41.3624 124.04 41.3624 123.71C41.3624 123.399 41.463 123.143 41.6642 122.942C41.8654 122.741 42.1124 122.64 42.4051 122.64C42.6978 122.64 42.9447 122.741 43.1459 122.942C43.3471 123.143 43.4478 123.399 43.4478 123.71C43.4478 124.04 43.3471 124.305 43.1459 124.506C42.9447 124.689 42.6978 124.78 42.4051 124.78ZM43.0087 128.101V143H41.774V128.101H43.0087ZM52.5016 143.22C50.8369 143.22 49.4741 142.854 48.4131 142.122C47.3705 141.39 46.7851 140.348 46.657 138.994H47.9192C48.0107 139.963 48.4497 140.732 49.2363 141.299C50.0412 141.866 51.1296 142.149 52.5016 142.149C53.6357 142.149 54.532 141.866 55.1906 141.299C55.8674 140.713 56.2058 140 56.2058 139.159C56.2058 138.573 56.0229 138.098 55.657 137.732C55.3095 137.348 54.8705 137.055 54.34 136.854C53.8095 136.652 53.0869 136.433 52.1723 136.195C51.0747 135.902 50.1875 135.619 49.5107 135.345C48.8339 135.052 48.2577 134.622 47.782 134.055C47.3064 133.488 47.0686 132.729 47.0686 131.777C47.0686 131.082 47.279 130.442 47.6997 129.857C48.1205 129.253 48.7058 128.777 49.4558 128.43C50.2058 128.082 51.0564 127.909 52.0077 127.909C53.5625 127.909 54.8156 128.302 55.7668 129.088C56.7363 129.857 57.2577 130.927 57.3308 132.299H56.0961C56.0412 131.311 55.657 130.506 54.9436 129.884C54.2302 129.262 53.2424 128.951 51.9802 128.951C50.9192 128.951 50.0412 129.226 49.3461 129.774C48.651 130.323 48.3034 130.991 48.3034 131.777C48.3034 132.473 48.4955 133.04 48.8796 133.479C49.282 133.899 49.7668 134.229 50.3339 134.466C50.9192 134.686 51.6875 134.924 52.6388 135.18C53.6814 135.454 54.5138 135.729 55.1357 136.003C55.776 136.259 56.3156 136.643 56.7546 137.155C57.1936 137.649 57.4131 138.317 57.4131 139.159C57.4131 139.927 57.2028 140.622 56.782 141.244C56.3613 141.866 55.776 142.351 55.026 142.698C54.276 143.046 53.4345 143.22 52.5016 143.22ZM73.7687 128.101V143H72.534V139.762C72.1132 140.896 71.409 141.765 70.4212 142.369C69.4517 142.954 68.3358 143.247 67.0736 143.247C65.2992 143.247 63.845 142.707 62.7108 141.628C61.595 140.53 61.037 138.912 61.037 136.771V128.101H62.2443V136.689C62.2443 138.463 62.6925 139.826 63.5889 140.777C64.4852 141.71 65.7017 142.177 67.2382 142.177C68.848 142.177 70.1285 141.665 71.0797 140.64C72.0492 139.616 72.534 138.098 72.534 136.085V128.101H73.7687ZM77.5017 135.537C77.5017 134 77.8035 132.655 78.4072 131.503C79.0292 130.351 79.8798 129.463 80.959 128.841C82.0566 128.22 83.3005 127.909 84.6907 127.909C86.2639 127.909 87.5993 128.293 88.6968 129.061C89.7944 129.829 90.5627 130.808 91.0017 131.997V128.101H92.2365V143H91.0017V139.076C90.5627 140.284 89.7853 141.28 88.6694 142.067C87.5718 142.835 86.2456 143.22 84.6907 143.22C83.3005 143.22 82.0566 142.909 80.959 142.287C79.8798 141.646 79.0292 140.75 78.4072 139.598C77.8035 138.427 77.5017 137.073 77.5017 135.537ZM91.0017 135.537C91.0017 134.238 90.7273 133.095 90.1785 132.107C89.6481 131.101 88.9164 130.332 87.9834 129.802C87.0505 129.253 86.0078 128.979 84.8554 128.979C83.6481 128.979 82.5871 129.244 81.6725 129.774C80.7578 130.287 80.0444 131.037 79.5322 132.024C79.02 133.012 78.7639 134.183 78.7639 135.537C78.7639 136.89 79.02 138.061 79.5322 139.049C80.0444 140.037 80.7578 140.796 81.6725 141.326C82.6054 141.857 83.6664 142.122 84.8554 142.122C86.0078 142.122 87.0505 141.857 87.9834 141.326C88.9346 140.777 89.6755 140.009 90.206 139.021C90.7365 138.015 91.0017 136.854 91.0017 135.537ZM97.9672 122.695V143H96.7324V122.695H97.9672ZM103.317 140.119L100.737 147.143H99.8045L101.89 140.119H103.317ZM131.766 127.799C133.467 127.799 134.857 128.348 135.936 129.445C137.016 130.524 137.555 132.134 137.555 134.274V143H136.348V134.357C136.348 132.582 135.918 131.229 135.058 130.296C134.217 129.345 133.055 128.869 131.574 128.869C130.037 128.869 128.802 129.399 127.869 130.46C126.936 131.521 126.47 133.058 126.47 135.07V143H125.263V134.357C125.263 132.582 124.833 131.229 123.973 130.296C123.131 129.345 121.97 128.869 120.488 128.869C118.952 128.869 117.717 129.399 116.784 130.46C115.851 131.521 115.385 133.058 115.385 135.07V143H114.15V128.101H115.385V131.338C115.805 130.168 116.482 129.29 117.415 128.704C118.366 128.101 119.455 127.799 120.68 127.799C122.034 127.799 123.195 128.155 124.165 128.869C125.153 129.564 125.83 130.598 126.195 131.97C126.543 130.598 127.22 129.564 128.226 128.869C129.232 128.155 130.412 127.799 131.766 127.799ZM155.355 134.549C155.355 135.207 155.337 135.701 155.3 136.03H142.431C142.468 137.366 142.76 138.491 143.309 139.405C143.858 140.32 144.58 141.006 145.477 141.463C146.373 141.921 147.352 142.149 148.413 142.149C149.876 142.149 151.102 141.793 152.09 141.079C153.077 140.348 153.699 139.36 153.955 138.116H155.245C154.952 139.634 154.202 140.869 152.995 141.82C151.788 142.753 150.26 143.22 148.413 143.22C147.022 143.22 145.779 142.909 144.681 142.287C143.583 141.665 142.724 140.777 142.102 139.625C141.48 138.454 141.169 137.091 141.169 135.537C141.169 133.982 141.471 132.628 142.074 131.476C142.696 130.323 143.556 129.445 144.654 128.841C145.751 128.22 147.004 127.909 148.413 127.909C149.84 127.909 151.074 128.22 152.117 128.841C153.178 129.445 153.983 130.259 154.532 131.284C155.08 132.29 155.355 133.378 155.355 134.549ZM154.12 135.015C154.175 133.698 153.937 132.582 153.407 131.668C152.894 130.753 152.19 130.076 151.294 129.637C150.397 129.18 149.428 128.951 148.385 128.951C147.343 128.951 146.373 129.18 145.477 129.637C144.599 130.076 143.876 130.753 143.309 131.668C142.76 132.582 142.468 133.698 142.431 135.015H154.12ZM160.925 129.171V139.021C160.925 140.119 161.126 140.878 161.529 141.299C161.931 141.701 162.644 141.902 163.669 141.902H165.343V143H163.477C162.178 143 161.218 142.698 160.596 142.095C159.992 141.473 159.69 140.448 159.69 139.021V129.171H157.44V128.101H159.69V124.314H160.925V128.101H165.343V129.171H160.925ZM167.831 135.537C167.831 134 168.133 132.655 168.736 131.503C169.358 130.351 170.209 129.463 171.288 128.841C172.386 128.22 173.63 127.909 175.02 127.909C176.593 127.909 177.928 128.293 179.026 129.061C180.123 129.829 180.892 130.808 181.331 131.997V128.101H182.566V143H181.331V139.076C180.892 140.284 180.114 141.28 178.998 142.067C177.901 142.835 176.575 143.22 175.02 143.22C173.63 143.22 172.386 142.909 171.288 142.287C170.209 141.646 169.358 140.75 168.736 139.598C168.133 138.427 167.831 137.073 167.831 135.537ZM181.331 135.537C181.331 134.238 181.056 133.095 180.508 132.107C179.977 131.101 179.245 130.332 178.312 129.802C177.38 129.253 176.337 128.979 175.184 128.979C173.977 128.979 172.916 129.244 172.001 129.774C171.087 130.287 170.373 131.037 169.861 132.024C169.349 133.012 169.093 134.183 169.093 135.537C169.093 136.89 169.349 138.061 169.861 139.049C170.373 140.037 171.087 140.796 172.001 141.326C172.934 141.857 173.995 142.122 175.184 142.122C176.337 142.122 177.38 141.857 178.312 141.326C179.264 140.777 180.005 140.009 180.535 139.021C181.066 138.015 181.331 136.854 181.331 135.537ZM195.074 132.162V133.232H184.757V132.162H195.074ZM199.53 135.537C199.53 134 199.832 132.655 200.436 131.503C201.058 130.351 201.908 129.463 202.988 128.841C204.085 128.22 205.329 127.909 206.719 127.909C208.238 127.909 209.555 128.293 210.671 129.061C211.786 129.811 212.573 130.79 213.03 131.997V122.695H214.265V143H213.03V139.049C212.591 140.274 211.823 141.28 210.725 142.067C209.628 142.835 208.293 143.22 206.719 143.22C205.329 143.22 204.085 142.909 202.988 142.287C201.908 141.646 201.058 140.75 200.436 139.598C199.832 138.427 199.53 137.073 199.53 135.537ZM213.03 135.537C213.03 134.238 212.756 133.095 212.207 132.107C211.677 131.101 210.945 130.332 210.012 129.802C209.079 129.253 208.036 128.979 206.884 128.979C205.677 128.979 204.616 129.244 203.701 129.774C202.786 130.287 202.073 131.037 201.561 132.024C201.049 133.012 200.793 134.183 200.793 135.537C200.793 136.89 201.049 138.061 201.561 139.049C202.073 140.037 202.786 140.796 203.701 141.326C204.634 141.857 205.695 142.122 206.884 142.122C208.036 142.122 209.079 141.857 210.012 141.326C210.963 140.777 211.704 140.009 212.235 139.021C212.765 138.015 213.03 136.854 213.03 135.537ZM219.996 131.174C220.362 130.076 221.011 129.244 221.944 128.677C222.877 128.091 224.066 127.799 225.511 127.799V129.088H225.099C223.636 129.088 222.42 129.509 221.45 130.351C220.481 131.174 219.996 132.527 219.996 134.412V143H218.761V128.101H219.996V131.174ZM228.985 124.78C228.692 124.78 228.445 124.689 228.244 124.506C228.043 124.305 227.942 124.04 227.942 123.71C227.942 123.399 228.043 123.143 228.244 122.942C228.445 122.741 228.692 122.64 228.985 122.64C229.278 122.64 229.525 122.741 229.726 122.942C229.927 123.143 230.028 123.399 230.028 123.71C230.028 124.04 229.927 124.305 229.726 124.506C229.525 124.689 229.278 124.78 228.985 124.78ZM229.589 128.101V143H228.354V128.101H229.589ZM239.164 141.655L244.652 128.101H245.969L239.795 143H238.505L232.332 128.101H233.676L239.164 141.655ZM262.11 134.549C262.11 135.207 262.091 135.701 262.055 136.03H249.186C249.223 137.366 249.515 138.491 250.064 139.405C250.613 140.32 251.335 141.006 252.232 141.463C253.128 141.921 254.107 142.149 255.168 142.149C256.631 142.149 257.857 141.793 258.844 141.079C259.832 140.348 260.454 139.36 260.71 138.116H262C261.707 139.634 260.957 140.869 259.75 141.82C258.543 142.753 257.015 143.22 255.168 143.22C253.777 143.22 252.534 142.909 251.436 142.287C250.338 141.665 249.479 140.777 248.857 139.625C248.235 138.454 247.924 137.091 247.924 135.537C247.924 133.982 248.226 132.628 248.829 131.476C249.451 130.323 250.311 129.445 251.409 128.841C252.506 128.22 253.759 127.909 255.168 127.909C256.594 127.909 257.829 128.22 258.872 128.841C259.933 129.445 260.738 130.259 261.287 131.284C261.835 132.29 262.11 133.378 262.11 134.549ZM260.875 135.015C260.93 133.698 260.692 132.582 260.162 131.668C259.649 130.753 258.945 130.076 258.049 129.637C257.152 129.18 256.183 128.951 255.14 128.951C254.098 128.951 253.128 129.18 252.232 129.637C251.354 130.076 250.631 130.753 250.064 131.668C249.515 132.582 249.223 133.698 249.186 135.015H260.875ZM272.564 127.799C274.338 127.799 275.784 128.348 276.899 129.445C278.015 130.524 278.573 132.134 278.573 134.274V143H277.366V134.357C277.366 132.582 276.918 131.229 276.021 130.296C275.125 129.345 273.909 128.869 272.372 128.869C270.762 128.869 269.473 129.381 268.503 130.405C267.552 131.43 267.076 132.948 267.076 134.96V143H265.841V128.101H267.076V131.256C267.497 130.14 268.192 129.29 269.162 128.704C270.149 128.101 271.284 127.799 272.564 127.799ZM283.76 140.119L281.181 147.143H280.248L282.334 140.119H283.76ZM307.188 128.101V143H305.953V139.762C305.532 140.896 304.828 141.765 303.84 142.369C302.871 142.954 301.755 143.247 300.493 143.247C298.718 143.247 297.264 142.707 296.13 141.628C295.014 140.53 294.456 138.912 294.456 136.771V128.101H295.664V136.689C295.664 138.463 296.112 139.826 297.008 140.777C297.904 141.71 299.121 142.177 300.657 142.177C302.267 142.177 303.548 141.665 304.499 140.64C305.468 139.616 305.953 138.098 305.953 136.085V128.101H307.188ZM318.412 127.799C320.186 127.799 321.631 128.348 322.747 129.445C323.863 130.524 324.421 132.134 324.421 134.274V143H323.214V134.357C323.214 132.582 322.765 131.229 321.869 130.296C320.973 129.345 319.756 128.869 318.22 128.869C316.61 128.869 315.32 129.381 314.351 130.405C313.4 131.43 312.924 132.948 312.924 134.96V143H311.689V128.101H312.924V131.256C313.345 130.14 314.04 129.29 315.009 128.704C315.997 128.101 317.131 127.799 318.412 127.799ZM329.416 124.78C329.123 124.78 328.876 124.689 328.675 124.506C328.474 124.305 328.373 124.04 328.373 123.71C328.373 123.399 328.474 123.143 328.675 122.942C328.876 122.741 329.123 122.64 329.416 122.64C329.709 122.64 329.956 122.741 330.157 122.942C330.358 123.143 330.459 123.399 330.459 123.71C330.459 124.04 330.358 124.305 330.157 124.506C329.956 124.689 329.709 124.78 329.416 124.78ZM330.02 128.101V143H328.785V128.101H330.02ZM339.595 141.655L345.083 128.101H346.4L340.226 143H338.936L332.763 128.101H334.107L339.595 141.655ZM362.541 134.549C362.541 135.207 362.523 135.701 362.486 136.03H349.617C349.654 137.366 349.946 138.491 350.495 139.405C351.044 140.32 351.766 141.006 352.663 141.463C353.559 141.921 354.538 142.149 355.599 142.149C357.062 142.149 358.288 141.793 359.276 141.079C360.263 140.348 360.885 139.36 361.141 138.116H362.431C362.138 139.634 361.388 140.869 360.181 141.82C358.974 142.753 357.446 143.22 355.599 143.22C354.209 143.22 352.965 142.909 351.867 142.287C350.769 141.665 349.91 140.777 349.288 139.625C348.666 138.454 348.355 137.091 348.355 135.537C348.355 133.982 348.657 132.628 349.26 131.476C349.882 130.323 350.742 129.445 351.84 128.841C352.937 128.22 354.19 127.909 355.599 127.909C357.026 127.909 358.26 128.22 359.303 128.841C360.364 129.445 361.169 130.259 361.718 131.284C362.266 132.29 362.541 133.378 362.541 134.549ZM361.306 135.015C361.361 133.698 361.123 132.582 360.593 131.668C360.08 130.753 359.376 130.076 358.48 129.637C357.584 129.18 356.614 128.951 355.571 128.951C354.529 128.951 353.559 129.18 352.663 129.637C351.785 130.076 351.062 130.753 350.495 131.668C349.946 132.582 349.654 133.698 349.617 135.015H361.306ZM367.507 131.174C367.873 130.076 368.523 129.244 369.455 128.677C370.388 128.091 371.577 127.799 373.023 127.799V129.088H372.611C371.148 129.088 369.931 129.509 368.962 130.351C367.992 131.174 367.507 132.527 367.507 134.412V143H366.273V128.101H367.507V131.174ZM380.832 143.22C379.167 143.22 377.805 142.854 376.744 142.122C375.701 141.39 375.115 140.348 374.987 138.994H376.25C376.341 139.963 376.78 140.732 377.567 141.299C378.372 141.866 379.46 142.149 380.832 142.149C381.966 142.149 382.862 141.866 383.521 141.299C384.198 140.713 384.536 140 384.536 139.159C384.536 138.573 384.353 138.098 383.987 137.732C383.64 137.348 383.201 137.055 382.67 136.854C382.14 136.652 381.417 136.433 380.503 136.195C379.405 135.902 378.518 135.619 377.841 135.345C377.164 135.052 376.588 134.622 376.112 134.055C375.637 133.488 375.399 132.729 375.399 131.777C375.399 131.082 375.609 130.442 376.03 129.857C376.451 129.253 377.036 128.777 377.786 128.43C378.536 128.082 379.387 127.909 380.338 127.909C381.893 127.909 383.146 128.302 384.097 129.088C385.067 129.857 385.588 130.927 385.661 132.299H384.426C384.372 131.311 383.987 130.506 383.274 129.884C382.561 129.262 381.573 128.951 380.311 128.951C379.25 128.951 378.372 129.226 377.676 129.774C376.981 130.323 376.634 130.991 376.634 131.777C376.634 132.473 376.826 133.04 377.21 133.479C377.612 133.899 378.097 134.229 378.664 134.466C379.25 134.686 380.018 134.924 380.969 135.18C382.012 135.454 382.844 135.729 383.466 136.003C384.106 136.259 384.646 136.643 385.085 137.155C385.524 137.649 385.744 138.317 385.744 139.159C385.744 139.927 385.533 140.622 385.112 141.244C384.692 141.866 384.106 142.351 383.356 142.698C382.606 143.046 381.765 143.22 380.832 143.22ZM388.736 135.537C388.736 134 389.038 132.655 389.642 131.503C390.264 130.351 391.114 129.463 392.194 128.841C393.291 128.22 394.535 127.909 395.925 127.909C397.498 127.909 398.834 128.293 399.931 129.061C401.029 129.829 401.797 130.808 402.236 131.997V128.101H403.471V143H402.236V139.076C401.797 140.284 401.02 141.28 399.904 142.067C398.806 142.835 397.48 143.22 395.925 143.22C394.535 143.22 393.291 142.909 392.194 142.287C391.114 141.646 390.264 140.75 389.642 139.598C389.038 138.427 388.736 137.073 388.736 135.537ZM402.236 135.537C402.236 134.238 401.962 133.095 401.413 132.107C400.883 131.101 400.151 130.332 399.218 129.802C398.285 129.253 397.242 128.979 396.09 128.979C394.883 128.979 393.822 129.244 392.907 129.774C391.992 130.287 391.279 131.037 390.767 132.024C390.255 133.012 389.998 134.183 389.998 135.537C389.998 136.89 390.255 138.061 390.767 139.049C391.279 140.037 391.992 140.796 392.907 141.326C393.84 141.857 394.901 142.122 396.09 142.122C397.242 142.122 398.285 141.857 399.218 141.326C400.169 140.777 400.91 140.009 401.441 139.021C401.971 138.015 402.236 136.854 402.236 135.537ZM409.202 122.695V143H407.967V122.695H409.202ZM427.042 143.192C425.798 143.192 424.71 142.973 423.777 142.534C422.844 142.095 422.112 141.5 421.582 140.75C421.07 140 420.777 139.168 420.704 138.253H421.993C422.14 139.259 422.606 140.155 423.393 140.942C424.198 141.729 425.414 142.122 427.042 142.122C427.993 142.122 428.817 141.948 429.512 141.601C430.225 141.253 430.774 140.777 431.158 140.174C431.542 139.57 431.734 138.902 431.734 138.171C431.734 137.238 431.506 136.497 431.048 135.948C430.609 135.399 430.051 134.988 429.375 134.713C428.716 134.439 427.82 134.146 426.686 133.835C425.442 133.506 424.436 133.177 423.667 132.848C422.917 132.518 422.277 132.015 421.746 131.338C421.234 130.643 420.978 129.701 420.978 128.512C420.978 127.598 421.216 126.765 421.692 126.015C422.186 125.247 422.881 124.643 423.777 124.204C424.673 123.765 425.707 123.546 426.878 123.546C428.579 123.546 429.951 123.966 430.993 124.808C432.036 125.649 432.658 126.683 432.859 127.909H431.542C431.432 127.415 431.186 126.912 430.801 126.399C430.436 125.887 429.905 125.466 429.21 125.137C428.533 124.79 427.719 124.616 426.768 124.616C425.487 124.616 424.408 124.973 423.53 125.686C422.652 126.381 422.213 127.314 422.213 128.485C422.213 129.418 422.442 130.168 422.899 130.735C423.356 131.284 423.914 131.704 424.573 131.997C425.25 132.271 426.155 132.555 427.289 132.848C428.551 133.195 429.548 133.534 430.28 133.863C431.03 134.174 431.661 134.677 432.173 135.372C432.704 136.049 432.969 136.973 432.969 138.143C432.969 139.003 432.74 139.817 432.283 140.585C431.826 141.354 431.149 141.985 430.253 142.479C429.375 142.954 428.304 143.192 427.042 143.192ZM453.156 146.924L448.272 142.753C447.303 143.064 446.297 143.22 445.254 143.22C443.479 143.22 441.879 142.808 440.452 141.985C439.025 141.143 437.909 139.973 437.104 138.473C436.3 136.973 435.897 135.28 435.897 133.396C435.897 131.494 436.3 129.802 437.104 128.32C437.909 126.82 439.025 125.659 440.452 124.835C441.879 123.994 443.479 123.573 445.254 123.573C447.028 123.573 448.629 123.994 450.056 124.835C451.482 125.659 452.598 126.82 453.403 128.32C454.208 129.802 454.611 131.494 454.611 133.396C454.611 135.427 454.144 137.22 453.211 138.774C452.297 140.329 451.053 141.5 449.479 142.287L454.912 146.924H453.156ZM437.159 133.396C437.159 135.152 437.516 136.689 438.229 138.006C438.943 139.323 439.912 140.338 441.138 141.052C442.364 141.765 443.736 142.122 445.254 142.122C446.772 142.122 448.144 141.765 449.37 141.052C450.595 140.338 451.556 139.323 452.251 138.006C452.964 136.689 453.321 135.152 453.321 133.396C453.321 131.622 452.964 130.076 452.251 128.759C451.556 127.442 450.595 126.427 449.37 125.713C448.144 125 446.772 124.643 445.254 124.643C443.736 124.643 442.364 125 441.138 125.713C439.912 126.427 438.943 127.442 438.229 128.759C437.516 130.076 437.159 131.622 437.159 133.396ZM459.605 141.957H466.766V143H458.37V123.738H459.605V141.957ZM476.547 135.537C476.547 134 476.848 132.655 477.452 131.503C478.074 130.351 478.925 129.463 480.004 128.841C481.101 128.22 482.345 127.909 483.736 127.909C485.309 127.909 486.644 128.293 487.742 129.061C488.839 129.829 489.607 130.808 490.047 131.997V128.101H491.281V143H490.047V139.076C489.607 140.284 488.83 141.28 487.714 142.067C486.617 142.835 485.29 143.22 483.736 143.22C482.345 143.22 481.101 142.909 480.004 142.287C478.925 141.646 478.074 140.75 477.452 139.598C476.848 138.427 476.547 137.073 476.547 135.537ZM490.047 135.537C490.047 134.238 489.772 133.095 489.223 132.107C488.693 131.101 487.961 130.332 487.028 129.802C486.095 129.253 485.053 128.979 483.9 128.979C482.693 128.979 481.632 129.244 480.717 129.774C479.803 130.287 479.089 131.037 478.577 132.024C478.065 133.012 477.809 134.183 477.809 135.537C477.809 136.89 478.065 138.061 478.577 139.049C479.089 140.037 479.803 140.796 480.717 141.326C481.65 141.857 482.711 142.122 483.9 142.122C485.053 142.122 486.095 141.857 487.028 141.326C487.979 140.777 488.72 140.009 489.251 139.021C489.781 138.015 490.047 136.854 490.047 135.537ZM497.012 132.024C497.433 130.817 498.192 129.829 499.289 129.061C500.405 128.293 501.75 127.909 503.323 127.909C504.713 127.909 505.948 128.22 507.027 128.841C508.125 129.463 508.975 130.351 509.579 131.503C510.201 132.655 510.512 134 510.512 135.537C510.512 137.073 510.201 138.427 509.579 139.598C508.975 140.75 508.125 141.646 507.027 142.287C505.948 142.909 504.713 143.22 503.323 143.22C501.768 143.22 500.433 142.835 499.317 142.067C498.219 141.28 497.451 140.293 497.012 139.104V150.024H495.777V128.101H497.012V132.024ZM509.25 135.537C509.25 134.183 508.994 133.012 508.481 132.024C507.969 131.037 507.247 130.287 506.314 129.774C505.399 129.244 504.338 128.979 503.131 128.979C501.978 128.979 500.936 129.253 500.003 129.802C499.07 130.332 498.338 131.101 497.808 132.107C497.277 133.095 497.012 134.238 497.012 135.537C497.012 136.854 497.277 138.015 497.808 139.021C498.338 140.009 499.07 140.777 500.003 141.326C500.936 141.857 501.978 142.122 503.131 142.122C504.338 142.122 505.399 141.857 506.314 141.326C507.247 140.796 507.969 140.037 508.481 139.049C508.994 138.061 509.25 136.89 509.25 135.537ZM515.474 132.024C515.895 130.817 516.654 129.829 517.752 129.061C518.868 128.293 520.212 127.909 521.785 127.909C523.176 127.909 524.41 128.22 525.49 128.841C526.587 129.463 527.438 130.351 528.041 131.503C528.663 132.655 528.974 134 528.974 135.537C528.974 137.073 528.663 138.427 528.041 139.598C527.438 140.75 526.587 141.646 525.49 142.287C524.41 142.909 523.176 143.22 521.785 143.22C520.23 143.22 518.895 142.835 517.779 142.067C516.682 141.28 515.913 140.293 515.474 139.104V150.024H514.24V128.101H515.474V132.024ZM527.712 135.537C527.712 134.183 527.456 133.012 526.944 132.024C526.432 131.037 525.709 130.287 524.776 129.774C523.862 129.244 522.801 128.979 521.593 128.979C520.441 128.979 519.398 129.253 518.465 129.802C517.532 130.332 516.801 131.101 516.27 132.107C515.74 133.095 515.474 134.238 515.474 135.537C515.474 136.854 515.74 138.015 516.27 139.021C516.801 140.009 517.532 140.777 518.465 141.326C519.398 141.857 520.441 142.122 521.593 142.122C522.801 142.122 523.862 141.857 524.776 141.326C525.709 140.796 526.432 140.037 526.944 139.049C527.456 138.061 527.712 136.89 527.712 135.537ZM541.681 132.024C542.138 130.817 542.915 129.829 544.013 129.061C545.111 128.293 546.437 127.909 547.992 127.909C549.382 127.909 550.617 128.22 551.696 128.841C552.794 129.463 553.644 130.351 554.248 131.503C554.87 132.655 555.181 134 555.181 135.537C555.181 137.073 554.87 138.427 554.248 139.598C553.644 140.75 552.794 141.646 551.696 142.287C550.617 142.909 549.382 143.22 547.992 143.22C546.437 143.22 545.101 142.835 543.986 142.067C542.888 141.299 542.12 140.311 541.681 139.104V143H540.446V122.695H541.681V132.024ZM553.919 135.537C553.919 134.183 553.662 133.012 553.15 132.024C552.638 131.037 551.915 130.287 550.983 129.774C550.068 129.244 549.007 128.979 547.8 128.979C546.647 128.979 545.605 129.253 544.672 129.802C543.739 130.332 543.007 131.101 542.476 132.107C541.946 133.095 541.681 134.238 541.681 135.537C541.681 136.854 541.946 138.015 542.476 139.021C543.007 140.009 543.739 140.777 544.672 141.326C545.605 141.857 546.647 142.122 547.8 142.122C549.007 142.122 550.068 141.857 550.983 141.326C551.915 140.796 552.638 140.037 553.15 139.049C553.662 138.061 553.919 136.89 553.919 135.537ZM571.503 128.101V143H570.268V139.762C569.847 140.896 569.143 141.765 568.155 142.369C567.186 142.954 566.07 143.247 564.808 143.247C563.033 143.247 561.579 142.707 560.445 141.628C559.329 140.53 558.771 138.912 558.771 136.771V128.101H559.979V136.689C559.979 138.463 560.427 139.826 561.323 140.777C562.219 141.71 563.436 142.177 564.972 142.177C566.582 142.177 567.863 141.665 568.814 140.64C569.783 139.616 570.268 138.098 570.268 136.085V128.101H571.503ZM576.635 124.78C576.343 124.78 576.096 124.689 575.894 124.506C575.693 124.305 575.593 124.04 575.593 123.71C575.593 123.399 575.693 123.143 575.894 122.942C576.096 122.741 576.343 122.64 576.635 122.64C576.928 122.64 577.175 122.741 577.376 122.942C577.577 123.143 577.678 123.399 577.678 123.71C577.678 124.04 577.577 124.305 577.376 124.506C577.175 124.689 576.928 124.78 576.635 124.78ZM577.239 128.101V143H576.004V128.101H577.239ZM583 122.695V143H581.765V122.695H583ZM586.758 135.537C586.758 134 587.06 132.655 587.664 131.503C588.286 130.351 589.136 129.463 590.215 128.841C591.313 128.22 592.557 127.909 593.947 127.909C595.465 127.909 596.783 128.293 597.898 129.061C599.014 129.811 599.801 130.79 600.258 131.997V122.695H601.493V143H600.258V139.049C599.819 140.274 599.051 141.28 597.953 142.067C596.856 142.835 595.52 143.22 593.947 143.22C592.557 143.22 591.313 142.909 590.215 142.287C589.136 141.646 588.286 140.75 587.664 139.598C587.06 138.427 586.758 137.073 586.758 135.537ZM600.258 135.537C600.258 134.238 599.984 133.095 599.435 132.107C598.904 131.101 598.173 130.332 597.24 129.802C596.307 129.253 595.264 128.979 594.112 128.979C592.904 128.979 591.844 129.244 590.929 129.774C590.014 130.287 589.301 131.037 588.789 132.024C588.276 133.012 588.02 134.183 588.02 135.537C588.02 136.89 588.276 138.061 588.789 139.049C589.301 140.037 590.014 140.796 590.929 141.326C591.862 141.857 592.923 142.122 594.112 142.122C595.264 142.122 596.307 141.857 597.24 141.326C598.191 140.777 598.932 140.009 599.462 139.021C599.993 138.015 600.258 136.854 600.258 135.537ZM619.407 134.549C619.407 135.207 619.388 135.701 619.352 136.03H606.483C606.519 137.366 606.812 138.491 607.361 139.405C607.91 140.32 608.632 141.006 609.528 141.463C610.425 141.921 611.403 142.149 612.464 142.149C613.928 142.149 615.153 141.793 616.141 141.079C617.129 140.348 617.751 139.36 618.007 138.116H619.297C619.004 139.634 618.254 140.869 617.047 141.82C615.839 142.753 614.312 143.22 612.464 143.22C611.074 143.22 609.83 142.909 608.733 142.287C607.635 141.665 606.775 140.777 606.153 139.625C605.532 138.454 605.221 137.091 605.221 135.537C605.221 133.982 605.522 132.628 606.126 131.476C606.748 130.323 607.608 129.445 608.705 128.841C609.803 128.22 611.056 127.909 612.464 127.909C613.891 127.909 615.126 128.22 616.169 128.841C617.23 129.445 618.035 130.259 618.583 131.284C619.132 132.29 619.407 133.378 619.407 134.549ZM618.172 135.015C618.227 133.698 617.989 132.582 617.458 131.668C616.946 130.753 616.242 130.076 615.346 129.637C614.449 129.18 613.48 128.951 612.437 128.951C611.394 128.951 610.425 129.18 609.528 129.637C608.65 130.076 607.928 130.753 607.361 131.668C606.812 132.582 606.519 133.698 606.483 135.015H618.172ZM624.373 131.174C624.739 130.076 625.388 129.244 626.321 128.677C627.254 128.091 628.443 127.799 629.888 127.799V129.088H629.477C628.013 129.088 626.797 129.509 625.827 130.351C624.858 131.174 624.373 132.527 624.373 134.412V143H623.138V128.101H624.373V131.174Z" fill="#F4F4F6"/>
<rect x="67.6285" y="35.3377" width="24.3707" height="24.3709" rx="4.25961" fill="#8764CE"/>
<rect x="60.318" width="31.682" height="31.6822" rx="5.53749" fill="#FCC573"/>
<rect x="72.5035" y="65.8014" width="14.6224" height="14.6225" rx="2.55576" fill="#31549B"/>
<rect x="72.5035" y="65.8014" width="14.6224" height="14.6225" rx="2.55576" fill="#31549B"/>
<rect x="30.4628" width="24.3707" height="24.3709" rx="4.25961" fill="#6487CE"/>
<rect y="31.0728" width="60.9268" height="60.9272" rx="10.649" fill="#FA9C0F"/>
<rect x="9.74799" y="4.8743" width="14.6224" height="14.6225" rx="2.55576" fill="#43277C"/>
<path d="M196.08 91.1093H171.143L137.937 40.9737V91.1093H113V1.39973H137.937L171.143 52.1715V1.39973H196.08V91.1093ZM283.315 19.7234V91.1093H258.251V80.9295C256.129 84.1531 253.203 86.7829 249.472 88.8188C245.74 90.77 241.456 91.7455 236.621 91.7455C228.309 91.7455 221.736 89.0308 216.901 83.6017C212.151 78.0876 209.776 70.6224 209.776 61.2061V19.7234H234.586V58.0249C234.586 62.0968 235.646 65.3205 237.767 67.6957C239.972 69.9862 242.856 71.1314 246.418 71.1314C250.065 71.1314 252.949 69.9862 255.07 67.6957C257.19 65.3205 258.251 62.0968 258.251 58.0249V19.7234H283.315ZM354.759 45.0456C360.018 46.2333 364.174 48.8631 367.228 52.935C370.365 56.9221 371.935 61.503 371.935 66.6777C371.935 74.3126 369.306 80.2932 364.047 84.6196C358.788 88.9461 351.408 91.1093 341.909 91.1093H297.506V1.39973H340.51C349.67 1.39973 356.838 3.43569 362.011 7.50761C367.27 11.5795 369.899 17.3057 369.899 24.686C369.899 29.9456 368.5 34.3569 365.701 37.9198C362.986 41.3979 359.339 43.7732 354.759 45.0456ZM322.443 37.029H335.039C341.316 37.029 344.454 34.4416 344.454 29.2669C344.454 23.9225 341.316 21.2503 335.039 21.2503H322.443V37.029ZM336.947 71.0042C343.224 71.0042 346.362 68.3744 346.362 63.1148C346.362 60.4001 345.514 58.3219 343.818 56.8797C342.206 55.4375 339.873 54.7165 336.82 54.7165H322.443V71.0042H336.947ZM407.801 72.0221H435.664V91.1093H382.864V1.39973H407.801V72.0221ZM488.363 92C479.966 92 472.248 90.0488 465.207 86.1466C458.167 82.1595 452.569 76.6878 448.413 69.7317C444.342 62.6906 442.306 54.7589 442.306 45.9364C442.306 37.1138 444.342 29.2245 448.413 22.2683C452.569 15.2273 458.167 9.75565 465.207 5.85339C472.248 1.95112 479.966 0 488.363 0C496.844 0 504.564 1.95112 511.519 5.85339C518.559 9.75565 524.114 15.2273 528.186 22.2683C532.257 29.2245 534.292 37.1138 534.292 45.9364C534.292 54.7589 532.257 62.6906 528.186 69.7317C524.114 76.6878 518.559 82.1595 511.519 86.1466C504.478 90.0488 496.76 92 488.363 92ZM488.363 68.841C494.724 68.841 499.729 66.7625 503.376 62.6058C507.108 58.4491 508.974 52.8925 508.974 45.9364C508.974 38.8105 507.108 33.2116 503.376 29.1397C499.729 24.983 494.724 22.9046 488.363 22.9046C481.917 22.9046 476.87 24.983 473.223 29.1397C469.576 33.2116 467.752 38.8105 467.752 45.9364C467.752 52.9775 469.576 58.5764 473.223 62.7331C476.87 66.805 481.917 68.841 488.363 68.841ZM601.61 91.1093L584.18 65.787L569.294 91.1093H540.922L570.058 45.1729L539.904 1.39973H569.294L586.216 26.0858L600.72 1.39973H629.092L600.338 46.5726L631 91.1093H601.61Z" fill="#F4F4F6"/>
</svg>
